<?xml version="1.0" encoding="UTF-8" standalone="no"?>
<!-- Created with Inkscape (http://www.inkscape.org/) -->

<svg
   xmlns:dc="http://purl.org/dc/elements/1.1/"
   xmlns:cc="http://creativecommons.org/ns#"
   xmlns:rdf="http://www.w3.org/1999/02/22-rdf-syntax-ns#"
   xmlns:svg="http://www.w3.org/2000/svg"
   xmlns="http://www.w3.org/2000/svg"
   xmlns:sodipodi="http://sodipodi.sourceforge.net/DTD/sodipodi-0.dtd"
   xmlns:inkscape="http://www.inkscape.org/namespaces/inkscape"
   width="128"
   height="128"
   viewBox="0 0 33.866667 128"
   version="1.1"
   id="svg8"
   inkscape:version="0.92.4 5da689c313, 2019-01-14"
   sodipodi:docname="resting-man-white.svg">
  <defs
     id="defs2" />
  <sodipodi:namedview
     id="base"
     pagecolor="#ffffff"
     bordercolor="#666666"
     borderopacity="1.0"
     inkscape:pageopacity="0.0"
     inkscape:pageshadow="2"
     inkscape:zoom="3.0507812"
     inkscape:cx="-3.4875736"
     inkscape:cy="82.018684"
     inkscape:document-units="px"
     inkscape:current-layer="g1577"
     showgrid="true"
     units="px"
     width="128px"
     fit-margin-top="1"
     fit-margin-left="1"
     fit-margin-bottom="1"
     fit-margin-right="1"
     inkscape:showpageshadow="false"
     showguides="false"
     inkscape:window-width="1920"
     inkscape:window-height="1055"
     inkscape:window-x="0"
     inkscape:window-y="25"
     inkscape:window-maximized="1"
     inkscape:pagecheckerboard="false"
     inkscape:snap-global="false">
    <inkscape:grid
       type="axonomgrid"
       id="grid815"
       units="mm"
       empspacing="5" />
  </sodipodi:namedview>
  <metadata
     id="metadata5">
    <rdf:RDF>
      <cc:Work
         rdf:about="">
        <dc:format>image/svg+xml</dc:format>
        <dc:type
           rdf:resource="http://purl.org/dc/dcmitype/StillImage" />
        <dc:title></dc:title>
      </cc:Work>
    </rdf:RDF>
  </metadata>
  <g
     inkscape:label="Layer 1"
     inkscape:groupmode="layer"
     id="layer1"
     transform="translate(0,-169)">
    <g
       id="g1501"
       transform="matrix(1.3193864,0,0,1.3193864,-3.3571027,-71.955663)">
      <g
         id="g1577"
         style="fill:#999999;fill-opacity:0.93333334">
        <path
           style="opacity:0.93000034;fill:#ffffff;fill-opacity:0.93333334;fill-rule:nonzero;stroke:#fefefe;stroke-width:0;stroke-linecap:square;stroke-linejoin:miter;stroke-miterlimit:4;stroke-dasharray:none;stroke-opacity:1;paint-order:stroke fill markers"
           d="M 64.275391 2.640625 A 8.4677278 8.4677278 0 0 0 55.806641 11.107422 A 8.4677278 8.4677278 0 0 0 64.275391 19.576172 A 8.4677278 8.4677278 0 0 0 72.742188 11.107422 A 8.4677278 8.4677278 0 0 0 64.275391 2.640625 z M 76.619141 3.7949219 A 21.59286 21.59286 0 0 1 76.617188 3.9882812 L 76.619141 3.7949219 z M 63.316406 21.248047 C 59.79967 21.248047 56.67284 22.651957 54.619141 24.855469 L 54.619141 24.470703 C 47.114215 29.412043 26.878024 36.232296 33.027344 46.910156 C 29.943752 43.942975 47.830078 61.810547 47.830078 61.810547 C 48.805126 62.785593 49.966947 63.250752 51.048828 63.275391 L 43.994141 115.69727 C 43.715816 117.7655 43.594925 119.44304 43.720703 119.45898 L 54.751953 120.85742 C 54.877731 120.87336 55.204098 119.22058 55.482422 117.15234 L 62.353516 66.085938 C 62.671445 66.109434 62.991303 66.128906 63.316406 66.128906 C 63.319703 66.128906 63.322876 66.128909 63.326172 66.128906 L 70.660156 120.40039 C 70.708723 120.75976 71.03866 121.0122 71.398438 120.9668 L 81.634766 119.67383 C 81.994543 119.62843 82.245833 119.30273 82.197266 118.94336 L 74.507812 62.0625 C 76.017907 62.374761 77.652016 62.248399 78.550781 61.695312 C 78.550781 61.695312 96.437109 43.827741 93.353516 46.794922 C 99.502837 36.117062 79.266645 29.294855 71.761719 24.353516 L 71.761719 24.605469 C 69.708548 22.549272 66.695559 21.248047 63.316406 21.248047 z M 52.097656 35.787109 L 52.097656 54.072266 L 42.957031 43.605469 C 42.434604 40.592017 47.046737 38.411838 52.097656 35.787109 z M 74.533203 35.802734 C 79.483548 38.369047 83.937499 40.527293 83.423828 43.490234 L 74.533203 53.669922 L 74.533203 35.802734 z "
           transform="matrix(0.75792808,0,0,0.75792808,-33.128706,182.62706)"
           id="path1380" />
      </g>
    </g>
  </g>
</svg>
