<?xml version="1.0" encoding="UTF-8" standalone="no"?>
<!-- Created with Inkscape (http://www.inkscape.org/) -->

<svg
   xmlns:dc="http://purl.org/dc/elements/1.1/"
   xmlns:cc="http://creativecommons.org/ns#"
   xmlns:rdf="http://www.w3.org/1999/02/22-rdf-syntax-ns#"
   xmlns:svg="http://www.w3.org/2000/svg"
   xmlns="http://www.w3.org/2000/svg"
   xmlns:sodipodi="http://sodipodi.sourceforge.net/DTD/sodipodi-0.dtd"
   xmlns:inkscape="http://www.inkscape.org/namespaces/inkscape"
   width="128"
   height="128"
   viewBox="0 0 33.866667 128"
   version="1.1"
   id="svg8"
   inkscape:version="0.92.2 2405546, 2018-03-11"
   sodipodi:docname="gear.svg">
  <defs
     id="defs2" />
  <sodipodi:namedview
     id="base"
     pagecolor="#ffffff"
     bordercolor="#666666"
     borderopacity="1.0"
     inkscape:pageopacity="0.0"
     inkscape:pageshadow="2"
     inkscape:zoom="2.1572281"
     inkscape:cx="-6.3473314"
     inkscape:cy="76.188943"
     inkscape:document-units="px"
     inkscape:current-layer="layer1"
     showgrid="true"
     units="px"
     width="128px"
     fit-margin-top="1"
     fit-margin-left="1"
     fit-margin-bottom="1"
     fit-margin-right="1"
     inkscape:showpageshadow="false"
     showguides="false"
     inkscape:window-width="1920"
     inkscape:window-height="1052"
     inkscape:window-x="0"
     inkscape:window-y="28"
     inkscape:window-maximized="1">
    <inkscape:grid
       type="axonomgrid"
       id="grid815"
       units="mm"
       empspacing="5" />
  </sodipodi:namedview>
  <metadata
     id="metadata5">
    <rdf:RDF>
      <cc:Work
         rdf:about="">
        <dc:format>image/svg+xml</dc:format>
        <dc:type
           rdf:resource="http://purl.org/dc/dcmitype/StillImage" />
        <dc:title></dc:title>
      </cc:Work>
    </rdf:RDF>
  </metadata>
  <g
     inkscape:label="Layer 1"
     inkscape:groupmode="layer"
     id="layer1"
     transform="translate(0,-169)">
    <path
       style="fill:#000000;fill-opacity:1;fill-rule:nonzero;stroke:#1a1313;stroke-width:7.24876738;stroke-linecap:square;stroke-linejoin:miter;stroke-miterlimit:4.5;stroke-dasharray:none;stroke-opacity:0.99184781;paint-order:stroke fill markers"
       d="M 64 7.8710938 A 56.127251 56.127251 0 0 0 54.222656 8.7421875 C 54.227896 13.278668 54.163532 17.918156 53.234375 22.035156 A 43.35857 43.35857 0 0 0 33.269531 33.455078 C 29.252324 32.170768 25.222043 29.878875 21.316406 27.578125 A 56.127251 56.127251 0 0 0 11.308594 44.869141 C 15.226296 47.125851 19.193019 49.495849 22.28125 52.349609 A 43.35857 43.35857 0 0 0 20.642578 64 A 43.35857 43.35857 0 0 0 22.166016 75.357422 C 19.057264 78.178582 15.078982 80.510682 11.152344 82.732422 A 56.127251 56.127251 0 0 0 21.074219 100.07227 C 24.978728 97.812586 29.004714 95.565903 33.011719 94.314453 A 43.35857 43.35857 0 0 0 52.90625 105.86133 C 53.806255 109.98163 53.838257 114.6176 53.798828 119.15234 A 56.127251 56.127251 0 0 0 64 120.12891 A 56.127251 56.127251 0 0 0 73.777344 119.25781 C 73.772144 114.72133 73.836661 110.08182 74.765625 105.96484 A 43.35857 43.35857 0 0 0 94.730469 94.542969 C 98.747989 95.827329 102.77749 98.120745 106.68359 100.42188 A 56.127251 56.127251 0 0 0 116.69141 83.130859 C 112.77417 80.874359 108.80873 78.503501 105.7207 75.650391 A 43.35857 43.35857 0 0 0 107.35938 64 A 43.35857 43.35857 0 0 0 105.83398 52.642578 C 108.94274 49.821418 112.92102 47.489318 116.84766 45.267578 A 56.127251 56.127251 0 0 0 106.92578 27.927734 C 103.02215 30.186744 98.996336 32.432154 94.990234 33.683594 A 43.35857 43.35857 0 0 0 75.09375 22.138672 C 74.193552 18.018362 74.161722 13.382406 74.201172 8.8476562 A 56.127251 56.127251 0 0 0 64 7.8710938 z M 64 35.033203 A 28.96616 28.96616 0 0 1 92.966797 64 A 28.96616 28.96616 0 0 1 64 92.966797 A 28.96616 28.96616 0 0 1 35.033203 64 A 28.96616 28.96616 0 0 1 64 35.033203 z "
       transform="translate(-47.066666,169)"
       id="path824" />
  </g>
</svg>
